<?xml version="1.0" encoding="utf-8"?><svg viewBox="0 0 1024 1024" xmlns="http://www.w3.org/2000/svg" xmlns:xlink="http://www.w3.org/1999/xlink"><style>:root>svg{display:none}:root>svg:target{display:block}</style><svg viewBox="0 0 13 13" fill="none" id="arrow" xmlns="http://www.w3.org/2000/svg"><path stroke="currentColor" d="M11.868 0v12M12 .5H0M11.722.985.985 11.722"/></svg><svg class="bsvg-icon" style="vertical-align:middle;fill:currentColor;overflow:hidden" viewBox="0 0 1024 1024" id="close" xmlns="http://www.w3.org/2000/svg"><path d="m777.856 280.192-33.92-33.952-231.872 231.872-231.84-231.872-33.984 33.888 231.872 231.904-231.84 231.84 33.888 33.984 231.904-231.904 231.84 231.872 33.952-33.888-231.872-231.904z"/></svg><svg viewBox="0 0 48 51" fill="none" id="logo" xmlns="http://www.w3.org/2000/svg"><path d="M29.38 50.09c-.09 0-.134.045-.134.137v.138c0 .091.045.137.134.137h17.668c.134 0 .201-.046.201-.138v-.137c0-.092-.067-.137-.2-.137h-2.075c-1.383 0-2.365-.253-2.945-.757-.536-.504-.982-1.328-1.339-2.474a541.7 541.7 0 0 1-6.224-21.17A2426.683 2426.683 0 0 1 28.778 4.38c-.268-.963-.268-1.765 0-2.406.267-.642.892-.962 1.873-.962h4.016c.134 0 .2-.07.2-.207V.738c0-.092-.066-.138-.2-.138H7.897c-.179 0-.268.046-.268.138v.068c0 .138.089.207.268.207h4.952c.892 0 1.339.412 1.339 1.237 0 .366-.045.733-.134 1.1-.09.32-.246.801-.469 1.443a329.056 329.056 0 0 1-1.472 3.78 814.32 814.32 0 0 1-1.673 4.4 811.569 811.569 0 0 0-1.673 4.399 1098.03 1098.03 0 0 1-1.406 3.711 222.976 222.976 0 0 1-2.61 6.599 138.82 138.82 0 0 0-2.276 6.186 68.762 68.762 0 0 0-1.673 5.499C.401 41.062.2 42.62.2 44.04c0 2.429.58 4.193 1.74 5.293 1.16 1.1 2.61 1.65 4.35 1.65 1.428 0 2.722-.39 3.882-1.17 1.16-.824 2.253-1.832 3.28-3.024a42.91 42.91 0 0 0 3.011-3.918 46.538 46.538 0 0 1 3.012-3.918c1.026-1.237 2.097-2.245 3.212-3.024 1.16-.825 2.41-1.237 3.748-1.237 2.142 0 3.793.641 4.953 1.925a12.016 12.016 0 0 1 2.543 4.399c.357 1.008.625 1.97.803 2.886.223.917.446 1.742.67 2.475.088.412.11.848.066 1.306 0 .458-.134.87-.401 1.237-.224.32-.625.596-1.205.825-.535.229-1.272.344-2.209.344H29.38ZM11.578 22.183c2.543 0 4.394.596 5.554 1.787 1.16 1.146 1.74 3.024 1.74 5.637v7.148a46.15 46.15 0 0 0-2.877 2.337 54.351 54.351 0 0 1-2.744 2.268 19.508 19.508 0 0 1-2.61 1.718c-.848.413-1.696.62-2.544.62-1.249 0-2.387-.39-3.413-1.17-1.026-.824-1.54-2.176-1.54-4.055 0-1.145.18-2.451.536-3.918A87.188 87.188 0 0 1 5.02 30.02c.535-1.512 1.07-2.956 1.606-4.33.535-1.375.981-2.544 1.338-3.506h3.615Zm2.61-16.634c.535-1.375 1.204-2.268 2.007-2.68a6.82 6.82 0 0 1 2.677-.688v11.96c0 2.704-.557 4.651-1.673 5.842-1.115 1.192-2.99 1.788-5.622 1.788h-3.48l2.008-5.362c.67-1.833 1.294-3.505 1.874-5.017.58-1.513 1.049-2.796 1.405-3.85.402-1.054.67-1.718.804-1.993ZM30.919 29.95c.09.32.179.71.268 1.169.09.458.134.893.134 1.306.044.412.022.802-.067 1.168-.045.32-.179.55-.402.688-.089.045-.245.068-.468.068-.446 0-.982-.091-1.606-.275-.58-.229-1.384-.343-2.41-.343-1.25 0-2.454.274-3.614.824a21.945 21.945 0 0 0-3.48 1.925v-6.873c0-2.658.535-4.56 1.606-5.706 1.116-1.145 2.99-1.718 5.622-1.718h2.343c.356 1.283.691 2.59 1.003 3.918l1.071 3.85Zm-4.417-8.18c-2.543 0-4.395-.618-5.555-1.855-1.115-1.238-1.673-3.162-1.673-5.774V2.181c1.562.046 2.722.39 3.48 1.031.759.642 1.294 1.512 1.606 2.612.491 1.741 1.116 4.01 1.874 6.805.759 2.795 1.584 5.842 2.476 9.142h-2.208Z" fill="currentColor"/></svg><svg viewBox="0 0 24 13" fill="none" id="menu" xmlns="http://www.w3.org/2000/svg"><path stroke="currentColor" d="M0 .5h24M0 6.5h24M10 12.5h14"/></svg><svg viewBox="0 0 40 30" fill="none" id="quote" xmlns="http://www.w3.org/2000/svg"><path d="M16.638 0v12.318c0 9.507-6.218 15.95-14.971 17.682L.008 26.415c4.054-1.528 6.659-6.063 6.659-9.748H0V0h16.638ZM40 0v12.318C40 21.825 33.753 28.27 25 30l-1.66-3.585c4.055-1.528 6.66-6.063 6.66-9.748h-6.638V0H40Z" fill="currentColor"/></svg></svg>